<svg xmlns="http://www.w3.org/2000/svg" xmlns:xlink="http://www.w3.org/1999/xlink" width="500" zoomAndPan="magnify" viewBox="0 0 375 374.999991" height="500" preserveAspectRatio="xMidYMid meet" version="1.0"><defs><clipPath id="76956914ed"><path d="M 12.105469 71 L 173 71 L 173 194 L 12.105469 194 Z M 12.105469 71 " clip-rule="nonzero"/></clipPath><clipPath id="396badaef8"><path d="M 188 104 L 194.355469 104 L 194.355469 121 L 188 121 Z M 188 104 " clip-rule="nonzero"/></clipPath><clipPath id="5f192b6edd"><path d="M 114.015625 137.300781 L 315.800781 137.300781 L 315.800781 225.054688 L 114.015625 225.054688 Z M 114.015625 137.300781 " clip-rule="nonzero"/></clipPath><clipPath id="0cc44430e1"><path d="M 70.214844 131.90625 L 349.964844 131.90625 L 349.964844 326.90625 L 70.214844 326.90625 Z M 70.214844 131.90625 " clip-rule="nonzero"/></clipPath></defs><rect x="-37.5" width="450" fill="#ffffff" y="-37.499999" height="449.999989" fill-opacity="1"/><rect x="-37.5" width="450" fill="#ffffff" y="-37.499999" height="449.999989" fill-opacity="1"/><rect x="-37.5" width="450" fill="#e16565" y="-37.499999" height="449.999989" fill-opacity="1"/><path fill="#ffffff" d="M 113.566406 113.972656 C 113.566406 114.195312 113.523438 114.410156 113.4375 114.613281 C 113.351562 114.816406 113.234375 115 113.078125 115.15625 C 112.917969 115.3125 112.738281 115.433594 112.535156 115.519531 C 112.328125 115.601562 112.117188 115.644531 111.894531 115.644531 C 111.671875 115.644531 111.460938 115.601562 111.257812 115.519531 C 111.050781 115.433594 110.871094 115.3125 110.714844 115.15625 C 110.558594 115 110.4375 114.816406 110.351562 114.613281 C 110.265625 114.410156 110.226562 114.195312 110.226562 113.972656 C 110.226562 113.753906 110.265625 113.539062 110.351562 113.335938 C 110.4375 113.128906 110.558594 112.949219 110.714844 112.792969 C 110.871094 112.636719 111.050781 112.515625 111.257812 112.429688 C 111.460938 112.34375 111.671875 112.304688 111.894531 112.304688 C 112.117188 112.304688 112.328125 112.34375 112.535156 112.429688 C 112.738281 112.515625 112.917969 112.636719 113.078125 112.792969 C 113.234375 112.949219 113.351562 113.128906 113.4375 113.335938 C 113.523438 113.539062 113.566406 113.753906 113.566406 113.972656 Z M 113.566406 113.972656 " fill-opacity="1" fill-rule="nonzero"/><g clip-path="url(#76956914ed)"><path fill="#ffffff" d="M 167.84375 164.527344 C 145.507812 187.921875 111.058594 194.816406 81.414062 181.65625 C 44.046875 165.152344 26.09375 122.121094 40.707031 84.101562 L 46.550781 108.960938 C 46.761719 110.421875 48.222656 111.46875 49.683594 111.050781 C 51.144531 110.632812 51.980469 109.378906 51.5625 107.917969 C 51.5625 107.917969 43.421875 73.449219 43.421875 73.449219 C 43.210938 72.613281 42.585938 71.777344 41.542969 71.570312 C 40.707031 71.359375 39.664062 71.570312 39.035156 72.195312 L 13.152344 98.515625 C 12.105469 99.558594 12.105469 101.230469 13.152344 102.277344 C 14.195312 103.320312 15.863281 103.320312 16.90625 102.277344 L 35.488281 83.476562 C 20.039062 126.089844 41.960938 173.089844 84.546875 188.546875 C 115.027344 199.617188 149.265625 191.679688 171.808594 168.285156 C 172.855469 167.242188 172.855469 165.570312 172.019531 164.527344 C 169.929688 162.855469 168.261719 164.316406 167.84375 164.527344 Z M 167.84375 164.527344 " fill-opacity="1" fill-rule="nonzero"/></g><path fill="#ffffff" d="M 148.847656 43.996094 C 150.097656 44.621094 151.558594 44.203125 152.394531 42.953125 C 153.023438 41.699219 152.605469 40.027344 151.351562 39.398438 C 151.351562 39.398438 142.792969 35.429688 141.539062 35.011719 C 140.285156 34.386719 138.617188 35.011719 137.992188 36.265625 C 137.363281 37.519531 137.992188 39.191406 139.242188 39.816406 C 139.453125 39.609375 147.175781 42.953125 148.847656 43.996094 Z M 148.847656 43.996094 " fill-opacity="1" fill-rule="nonzero"/><path fill="#ffffff" d="M 95.402344 36.476562 C 95.613281 36.476562 102.5 35.222656 105.839844 35.011719 C 107.300781 34.804688 108.347656 33.550781 108.136719 32.296875 C 108.136719 30.835938 106.675781 29.792969 105.214844 29.792969 C 105.214844 29.792969 98.117188 30.625 94.566406 31.460938 C 93.105469 31.878906 92.273438 33.132812 92.6875 34.59375 C 93.105469 35.640625 94.152344 36.476562 95.402344 36.476562 Z M 95.402344 36.476562 " fill-opacity="1" fill-rule="nonzero"/><path fill="#ffffff" d="M 166.589844 57.15625 C 167.007812 57.574219 168.679688 58.617188 170.347656 57.15625 C 171.394531 56.109375 171.394531 54.441406 170.347656 53.394531 C 167.84375 50.890625 165.128906 48.589844 162.207031 46.292969 C 160.953125 45.457031 159.492188 45.667969 158.449219 46.710938 C 157.613281 47.964844 157.824219 49.425781 158.867188 50.472656 C 161.789062 52.558594 164.292969 54.859375 166.589844 57.15625 Z M 166.589844 57.15625 " fill-opacity="1" fill-rule="nonzero"/><path fill="#ffffff" d="M 128.179688 36.265625 C 128.179688 36.265625 130.683594 36.894531 131.308594 34.179688 C 131.726562 32.296875 130.476562 31.253906 129.429688 31.042969 C 125.882812 30.417969 122.332031 29.792969 118.785156 29.582031 C 117.324219 29.375 116.070312 30.417969 115.863281 31.878906 C 115.652344 33.34375 116.695312 34.59375 118.15625 34.804688 C 117.949219 34.804688 124.839844 35.640625 128.179688 36.265625 Z M 128.179688 36.265625 " fill-opacity="1" fill-rule="nonzero"/><path fill="#ffffff" d="M 75.363281 44.203125 C 78.285156 42.535156 81.414062 41.28125 84.546875 40.027344 C 85.800781 39.398438 86.636719 37.9375 86.007812 36.683594 C 85.382812 35.429688 83.921875 34.59375 82.667969 35.222656 C 79.328125 36.476562 75.988281 38.148438 72.855469 39.816406 C 71.605469 40.445312 70.976562 42.117188 71.8125 43.367188 C 73.066406 45.25 74.945312 44.414062 75.363281 44.203125 Z M 75.363281 44.203125 " fill-opacity="1" fill-rule="nonzero"/><path fill="#ffffff" d="M 187.46875 95.589844 C 187.675781 96.84375 188.71875 98.097656 190.597656 97.679688 C 192.058594 97.472656 192.894531 96.007812 192.6875 94.546875 C 192.6875 94.546875 191.015625 87.445312 189.765625 84.101562 C 189.347656 82.640625 187.886719 82.015625 186.421875 82.429688 C 185.171875 82.847656 184.335938 84.3125 184.753906 85.566406 C 184.753906 85.773438 186.839844 92.25 187.46875 95.589844 Z M 187.46875 95.589844 " fill-opacity="1" fill-rule="nonzero"/><path fill="#ffffff" d="M 190.179688 127.761719 C 188.71875 127.34375 187.46875 128.179688 187.050781 129.640625 C 186.214844 132.984375 185.171875 136.117188 184.128906 139.25 C 183.710938 140.503906 184.335938 142.175781 185.589844 142.59375 C 187.257812 143.21875 188.511719 142.175781 188.929688 141.128906 C 190.179688 137.789062 191.226562 134.234375 192.058594 130.894531 C 192.476562 129.433594 191.644531 128.179688 190.179688 127.761719 Z M 190.179688 127.761719 " fill-opacity="1" fill-rule="nonzero"/><path fill="#ffffff" d="M 182.25 149.277344 C 180.996094 148.648438 179.324219 149.066406 178.699219 150.113281 C 177.03125 153.035156 175.152344 155.753906 173.0625 158.46875 C 172.226562 159.722656 172.4375 161.183594 173.480469 162.226562 C 174.523438 163.273438 176.195312 162.855469 177.238281 161.808594 C 179.535156 158.886719 181.414062 155.960938 183.292969 152.828125 C 183.917969 151.574219 183.5 149.902344 182.25 149.277344 Z M 182.25 149.277344 " fill-opacity="1" fill-rule="nonzero"/><g clip-path="url(#396badaef8)"><path fill="#ffffff" d="M 194.355469 107.289062 C 194.355469 105.828125 193.105469 104.78125 191.644531 104.78125 C 190.179688 104.78125 189.136719 106.035156 189.136719 107.5 C 189.136719 108.75 189.136719 115.644531 188.929688 117.734375 C 188.71875 119.195312 189.972656 120.449219 191.226562 120.449219 C 191.226562 120.449219 193.9375 120.867188 194.148438 117.941406 C 194.355469 116.0625 194.355469 108.75 194.355469 107.289062 Z M 194.355469 107.289062 " fill-opacity="1" fill-rule="nonzero"/></g><path fill="#ffffff" d="M 179.953125 74.910156 C 180.371094 75.746094 182.039062 76.582031 183.5 75.957031 C 185.796875 74.910156 184.753906 72.824219 184.542969 72.40625 C 182.875 69.269531 180.996094 66.136719 178.699219 63.214844 C 177.863281 61.960938 175.984375 61.75 174.941406 62.796875 C 173.898438 63.632812 173.6875 65.09375 174.523438 66.347656 C 174.523438 66.347656 178.28125 71.988281 179.953125 74.910156 Z M 179.953125 74.910156 " fill-opacity="1" fill-rule="nonzero"/><path fill="#ffffff" d="M 140.078125 69.0625 C 140.914062 69.0625 141.75 68.644531 142.375 67.808594 L 144.460938 64.257812 C 145.089844 63.003906 144.460938 61.332031 143.210938 60.707031 C 142.164062 60.082031 140.703125 60.496094 139.871094 61.542969 L 137.78125 65.09375 C 136.53125 66.765625 137.78125 68.855469 140.078125 69.0625 Z M 140.078125 69.0625 " fill-opacity="1" fill-rule="nonzero"/><path fill="#ffffff" d="M 113.566406 61.332031 C 115.027344 61.332031 116.070312 60.289062 116.070312 58.828125 L 116.070312 54.648438 C 116.070312 53.1875 114.816406 52.140625 113.566406 52.140625 C 112.3125 52.140625 111.058594 53.394531 111.058594 54.648438 L 111.058594 58.828125 C 111.058594 60.082031 112.105469 61.332031 113.566406 61.332031 Z M 113.566406 61.332031 " fill-opacity="1" fill-rule="nonzero"/><path fill="#ffffff" d="M 83.503906 59.453125 C 82.25 60.082031 81.832031 61.75 82.460938 63.003906 L 84.546875 66.554688 C 84.964844 67.390625 86.425781 68.4375 88.097656 67.601562 C 89.347656 66.972656 89.765625 65.300781 89.140625 64.050781 C 89.140625 64.050781 87.050781 60.496094 87.050781 60.496094 C 86.007812 58.410156 83.921875 59.246094 83.503906 59.453125 Z M 83.503906 59.453125 " fill-opacity="1" fill-rule="nonzero"/><path fill="#ffffff" d="M 63.671875 141.757812 L 67.21875 139.667969 C 68.472656 139.039062 68.890625 137.371094 68.265625 136.117188 C 67.636719 134.863281 65.96875 134.445312 64.714844 135.070312 L 61.164062 137.160156 C 59.914062 137.789062 59.496094 139.457031 60.121094 140.710938 C 60.539062 141.757812 61.792969 142.800781 63.671875 141.757812 Z M 63.671875 141.757812 " fill-opacity="1" fill-rule="nonzero"/><path fill="#ffffff" d="M 80.789062 159.511719 C 79.953125 160.765625 80.582031 163.273438 83.085938 163.480469 C 83.921875 163.480469 84.757812 163.0625 85.382812 162.226562 L 87.46875 158.675781 C 88.304688 157.421875 87.886719 155.753906 86.636719 155.125 C 85.382812 154.289062 83.921875 154.707031 83.085938 155.960938 C 82.878906 155.960938 80.789062 159.511719 80.789062 159.511719 Z M 80.789062 159.511719 " fill-opacity="1" fill-rule="nonzero"/><path fill="#ffffff" d="M 108.972656 164.941406 L 108.972656 169.121094 C 108.972656 170.582031 110.015625 171.835938 111.476562 171.835938 C 112.9375 171.835938 113.984375 170.792969 113.984375 169.328125 L 113.984375 165.152344 C 114.191406 161.390625 108.972656 161.183594 108.972656 164.941406 Z M 108.972656 164.941406 " fill-opacity="1" fill-rule="nonzero"/><path fill="#ffffff" d="M 136.945312 156.167969 C 135.695312 156.796875 135.277344 158.46875 135.902344 159.722656 L 137.992188 163.273438 C 138.40625 164.109375 139.242188 164.734375 140.285156 164.734375 C 140.703125 164.734375 141.121094 164.527344 141.539062 164.316406 C 142.792969 163.691406 143.210938 162.019531 142.582031 160.765625 L 140.496094 157.214844 C 139.871094 155.960938 138.199219 155.542969 136.945312 156.167969 Z M 136.945312 156.167969 " fill-opacity="1" fill-rule="nonzero"/><path fill="#ffffff" d="M 162.832031 139.25 L 159.285156 137.160156 C 158.03125 136.324219 156.363281 136.742188 155.734375 137.996094 C 155.109375 139.25 155.316406 140.710938 156.570312 141.546875 C 156.570312 141.546875 156.570312 141.546875 156.78125 141.546875 L 160.328125 143.636719 C 161.582031 144.472656 163.25 144.054688 163.878906 142.800781 C 163.878906 142.800781 163.878906 142.800781 163.878906 142.59375 C 164.503906 141.546875 164.085938 139.875 162.832031 139.25 Z M 162.832031 139.25 " fill-opacity="1" fill-rule="nonzero"/><path fill="#ffffff" d="M 165.757812 110.214844 C 164.292969 110.214844 163.25 111.257812 163.042969 112.71875 C 163.042969 114.183594 164.085938 115.4375 165.546875 115.4375 L 169.722656 115.4375 C 171.183594 115.4375 172.226562 114.183594 172.226562 112.929688 C 172.226562 111.675781 170.976562 110.421875 169.722656 110.421875 L 165.757812 110.421875 Z M 165.757812 110.214844 " fill-opacity="1" fill-rule="nonzero"/><path fill="#ffffff" d="M 159.074219 88.90625 C 159.492188 88.90625 159.910156 88.699219 160.328125 88.488281 L 163.878906 86.402344 C 165.128906 85.773438 165.546875 84.101562 164.921875 82.847656 C 164.292969 81.597656 162.625 81.179688 161.371094 81.804688 L 157.824219 83.894531 C 156.570312 84.519531 156.152344 86.191406 156.78125 87.445312 C 157.195312 88.28125 158.03125 88.699219 159.074219 88.90625 Z M 159.074219 88.90625 " fill-opacity="1" fill-rule="nonzero"/><path fill="#ffffff" d="M 112.9375 114.601562 C 113.148438 114.390625 113.148438 113.972656 113.148438 113.765625 C 113.148438 113.554688 112.9375 113.136719 112.730469 112.929688 C 112.523438 112.71875 112.105469 112.71875 111.894531 112.71875 C 111.6875 112.71875 111.269531 112.929688 111.058594 113.136719 C 110.644531 113.554688 110.644531 114.390625 111.058594 114.808594 C 111.6875 115.226562 112.3125 115.226562 112.9375 114.601562 Z M 112.9375 114.601562 " fill-opacity="1" fill-rule="nonzero"/><path fill="#ffffff" d="M 112.3125 159.09375 C 138.617188 159.09375 159.703125 137.789062 159.703125 111.675781 C 159.703125 85.566406 138.617188 64.257812 112.3125 64.257812 C 86.007812 64.257812 64.921875 85.355469 64.921875 111.675781 C 64.921875 137.789062 86.21875 159.09375 112.3125 159.09375 Z M 82.460938 87.445312 C 83.503906 86.402344 85.171875 86.191406 86.21875 87.234375 L 109.390625 107.917969 C 110.015625 107.5 110.851562 107.5 111.6875 107.289062 C 112.523438 107.289062 113.148438 107.289062 113.984375 107.5 L 138.824219 79.714844 C 139.660156 78.671875 141.332031 78.253906 142.582031 79.296875 C 143.628906 80.132812 144.042969 81.804688 143 83.058594 C 143 83.058594 117.742188 111.257812 117.742188 111.257812 C 118.15625 111.886719 118.15625 112.71875 118.367188 113.554688 C 118.367188 117.105469 115.652344 120.03125 112.105469 120.03125 C 108.554688 120.03125 105.632812 117.316406 105.632812 113.765625 C 105.632812 113.136719 105.632812 112.511719 105.839844 111.886719 L 82.667969 90.996094 C 81.625 90.160156 81.625 88.488281 82.460938 87.445312 Z M 82.460938 87.445312 " fill-opacity="1" fill-rule="nonzero"/><g clip-path="url(#5f192b6edd)"><path fill="#e16565" d="M 114.015625 137.300781 L 316.164062 137.300781 L 316.164062 225.191406 L 114.015625 225.191406 Z M 114.015625 137.300781 " fill-opacity="1" fill-rule="nonzero"/></g><g clip-path="url(#0cc44430e1)"><path fill="#ffffff" d="M 349.855469 267.8125 L 349.855469 312.53125 C 349.855469 320.480469 343.414062 326.929688 335.472656 326.929688 L 84.707031 326.929688 C 76.761719 326.929688 70.320312 320.480469 70.320312 312.53125 L 70.320312 267.8125 C 70.320312 247.28125 84.351562 230.027344 103.335938 225.136719 L 291.925781 225.136719 C 299.382812 225.136719 306.898438 225.386719 314.371094 225.265625 C 315.273438 225.25 316.171875 225.230469 317.070312 225.203125 C 335.941406 230.175781 349.855469 247.363281 349.855469 267.8125 Z M 126.21875 216.734375 L 126.21875 198.171875 C 126.21875 190.023438 132.820312 183.417969 140.960938 183.417969 L 189.726562 183.417969 C 197.867188 183.417969 204.464844 190.023438 204.464844 198.171875 L 204.464844 216.734375 L 215.710938 216.734375 L 215.710938 198.171875 C 215.710938 190.023438 222.308594 183.417969 230.449219 183.417969 L 279.21875 183.417969 C 287.355469 183.417969 293.957031 190.023438 293.957031 198.171875 L 293.957031 216.734375 L 314.371094 216.734375 L 314.371094 151.417969 C 314.371094 140.644531 305.644531 131.90625 294.878906 131.90625 L 125.300781 131.90625 C 114.53125 131.90625 105.804688 140.644531 105.804688 151.417969 L 105.804688 216.570312 C 111.507812 216.589844 117.21875 216.734375 122.894531 216.734375 Z M 126.21875 216.734375 " fill-opacity="1" fill-rule="nonzero"/></g></svg>